mtllib s__1814.mtl
v 0.0193561 0.01 0.0543163
v 0.0193561 0.01 -0.0583162
v 0.0318099 0.01 -0.0583162
v 0.0318099 0.01 0.0543163
v 0.0 0.01 0.0543163
v -0.0193561 0.01 0.0543163
v 0.0 0.01 -0.0583162
v -0.0193561 0.01 -0.0583162
v -0.0318099 0.01 -0.0583162
v -0.0318099 0.01 0.0543163
v 0.0193561 0.00417518 0.0694622
v 0.0193561 0.00417517 -0.0696988
v 0.035 0.00417518 0.0626
v 0.035 0.00417517 -0.0629296
v 0.0300705 0.00417517 -0.0684613
v 0.0335562 0.00417517 -0.0666052
v 0.0300741 0.00417518 0.0681605
v 0.0335572 0.00417518 0.066284
v 0.0193311 0.0095245 -0.069316
v 0.0192977 0.01 -0.0688056
v 0.0193204 0.00986073 -0.0691522
v 0.0346168 0.0095252 0.0622604
v 0.0344491 0.00986094 0.0622168
v 0.0192897 0.01 0.0685697
v 0.0193276 0.0095245 0.0690797
v 0.0193154 0.00986073 0.068916
v 0.034106 0.01 -0.0624675
v 0.0346168 0.0095245 -0.062588
v 0.0344491 0.00986073 -0.0625442
v 0.0296871 0.0095252 -0.0681198
v 0.0295089 0.01 -0.0676262
v 0.0296244 0.00986093 -0.0679582
v 0.0331729 0.0095252 -0.0662637
v 0.0330292 0.00986093 -0.0661356
v 0.0296907 0.0095245 0.067821
v 0.0296272 0.00986073 0.0676598
v 0.033174 0.0095252 0.0659445
v 0.0330301 0.00986094 0.065817
v 0.0189605 2.80407E-9 0.0641496
v 0.0190085 -2.81423E-9 -0.064382
v 0.0291528 -2.73988E-9 -0.0626812
v 0.0291425 2.72641E-9 0.062373
v 0.00103334 0.00966818 -0.0619318
v 0.00109062 0.01 -0.0618583
v 0.00103334 0.00966818 -0.0644346
v 0.00167192 0.00966818 -0.0631771
v 0.0 0.00417517 -0.07
v 0.0 0.00417518 0.07
v -0.0193561 0.00417518 0.0694622
v -0.0193561 0.00417517 -0.0696988
v -0.035 0.00417518 0.0626
v -0.035 0.00417517 -0.0629296
v -0.0300705 0.00417517 -0.0684613
v -0.0335562 0.00417517 -0.0666052
v -0.0300741 0.00417518 0.0681605
v -0.0335572 0.00417518 0.066284
v -0.0193311 0.0095245 -0.069316
v -0.0192977 0.01 -0.0688056
v -0.0193204 0.00986073 -0.0691522
v -0.0346168 0.0095252 0.0622604
v -0.0344491 0.00986094 0.0622168
v -0.0192897 0.01 0.0685697
v -0.0193276 0.0095245 0.0690797
v -0.0193154 0.00986073 0.068916
v 0.0 0.00952457 0.069606
v 2.66385E-13 0.00986075 0.0694415
v 0.0 0.01 -0.0690994
v 3.97949E-9 0.00952452 -0.0696105
v 1.16557E-9 0.00986073 -0.0694466
v -0.034106 0.01 -0.0624675
v -0.0346168 0.0095245 -0.062588
v -0.0344491 0.00986073 -0.0625442
v -0.0296871 0.0095252 -0.0681198
v -0.0295089 0.01 -0.0676262
v -0.0296244 0.00986093 -0.0679582
v -0.0331729 0.0095252 -0.0662637
v -0.0330292 0.00986093 -0.0661356
v -0.0296907 0.0095245 0.067821
v -0.0296272 0.00986073 0.0676598
v -0.033174 0.0095252 0.0659445
v -0.0330301 0.00986094 0.065817
v 0.0 2.82063E-9 0.0645285
v -0.0189605 2.80407E-9 0.0641496
v 0.0 -2.82354E-9 -0.064595
v -0.0190085 -2.81423E-9 -0.064382
v -0.0291528 -2.73988E-9 -0.0626812
v -0.0291425 2.72641E-9 0.062373
v -0.00103334 0.00966818 -0.0619318
v 0.0 0.00966818 -0.0614917
v 0.0 0.00966818 -0.064887
v -0.00109062 0.01 -0.0618583
v -0.00103334 0.00966818 -0.0644346
v 0.0 0.00966818 -0.0631894
v -0.00167192 0.00966818 -0.0631771
v 0.0193561 0.00417518 0.0694622
v 0.0 0.00417518 0.07
v 0.0193561 0.00417517 -0.0696988
v 0.0 0.00417517 -0.07
v 0.035 0.00417517 -0.0629296
v 0.035 0.00417518 0.0626
v 0.0335562 0.00417517 -0.0666052
v 0.0300705 0.00417517 -0.0684613
v 0.0300741 0.00417518 0.0681605
v 0.0335572 0.00417518 0.066284
v 0.0193311 0.0095245 -0.069316
v 3.97949E-9 0.00952452 -0.0696105
v 9.09495E-13 0.01 0.0690941
v 0.0 0.00952457 0.069606
v 0.0193276 0.0095245 0.0690797
v 0.034106 0.01 0.0621403
v 0.0346168 0.0095252 0.0622604
v 0.0346168 0.0095245 -0.062588
v 0.0327595 0.01 -0.0658953
v 0.0331729 0.0095252 -0.0662637
v 0.0296871 0.0095252 -0.0681198
v 0.0327599 0.01 0.0655776
v 0.0295099 0.01 0.0673284
v 0.0296907 0.0095245 0.067821
v 0.033174 0.0095252 0.0659445
v 0.00176666 0.01 -0.0631766
v 0.00109062 0.01 -0.0645079
v 0.0 0.01 -0.0649868
v 0.0 0.01 -0.0613924
v 0.00103334 0.00966818 -0.0619318
v 0.00167192 0.00966818 -0.0631771
v 0.00103334 0.00966818 -0.0644346
v 0.0 0.00966818 -0.064887
v 0.0 0.00966818 -0.0614917
v -0.0193561 0.00417518 0.0694622
v -0.0193561 0.00417517 -0.0696988
v -0.035 0.00417517 -0.0629296
v -0.035 0.00417518 0.0626
v -0.0335562 0.00417517 -0.0666052
v -0.0300705 0.00417517 -0.0684613
v -0.0300741 0.00417518 0.0681605
v -0.0335572 0.00417518 0.066284
v -0.0193311 0.0095245 -0.069316
v -0.0193276 0.0095245 0.0690797
v -0.034106 0.01 0.0621403
v -0.0346168 0.0095252 0.0622604
v -0.0346168 0.0095245 -0.062588
v -0.0327595 0.01 -0.0658953
v -0.0331729 0.0095252 -0.0662637
v -0.0296871 0.0095252 -0.0681198
v -0.0327599 0.01 0.0655776
v -0.0295099 0.01 0.0673284
v -0.0296907 0.0095245 0.067821
v -0.033174 0.0095252 0.0659445
v -0.00176666 0.01 -0.0631766
v -0.00109062 0.01 -0.0645079
v -0.00103334 0.00966818 -0.0619318
v -0.00167192 0.00966818 -0.0631771
v -0.00103334 0.00966818 -0.0644346
v 0.0193561 0.01 0.0543163
v 0.0193561 0.01 -0.0583162
v 0.0318099 0.01 -0.0583162
v 0.0318099 0.01 0.0543163
v 0.034106 0.01 0.0621403
v 0.0327595 0.01 -0.0658953
v 0.0295099 0.01 0.0673284
v 0.0327599 0.01 0.0655776
v 0.00109062 0.01 -0.0645079
v 0.00176666 0.01 -0.0631766
v 0.0 0.01 0.0543163
v -0.0193561 0.01 0.0543163
v 0.0 0.01 -0.0583162
v -0.0193561 0.01 -0.0583162
v -0.0318099 0.01 -0.0583162
v -0.0318099 0.01 0.0543163
v -0.034106 0.01 0.0621403
v 9.09495E-13 0.01 0.0690941
v -0.0327595 0.01 -0.0658953
v -0.0295099 0.01 0.0673284
v -0.0327599 0.01 0.0655776
v 0.0 0.01 -0.0649868
v 0.0 0.01 -0.0613924
v -0.00109062 0.01 -0.0645079
v -0.00176666 0.01 -0.0631766
v 0.0 0.01 -0.0690994
v 0.0192977 0.01 -0.0688056
v 0.0192897 0.01 0.0685697
v 0.034106 0.01 -0.0624675
v 0.0295089 0.01 -0.0676262
v 0.00109062 0.01 -0.0618583
v -0.0192977 0.01 -0.0688056
v -0.0192897 0.01 0.0685697
v -0.034106 0.01 -0.0624675
v -0.0295089 0.01 -0.0676262
v -0.00109062 0.01 -0.0618583
vn 0.0 1.0 0.0
vn 0.363842 0.928983 0.067629
vn 0.266274 0.934538 0.235969
vn 0.518693 0.720878 0.459578
vn 0.680258 0.721824 0.127232
vn 0.0 0.072024 -0.997375
vn 0.064974 0.07181 -0.99527
vn 0.073916 0.072024 0.994659
vn 0.307047 0.082156 0.948119
vn 0.296091 0.081606 0.951659
vn 0.290933 0.081668 -0.953246
vn 0.302011 0.082247 -0.949736
vn 0.0 0.072451 0.997345
vn 0.980316 0.081668 -0.179632
vn 0.980407 0.081576 0.179174
vn 0.97824 0.082156 0.190497
vn 0.978118 0.082247 -0.191015
vn 0.743126 0.095492 -0.662252
vn 0.743156 0.095492 -0.662252
vn 0.745109 0.095248 0.660085
vn 0.745109 0.095248 0.660054
vn 0.058412 0.44084 -0.895657
vn 0.0 0.438276 -0.898831
vn 0.0 0.730369 -0.683035
vn 0.044679 0.727256 -0.684866
vn 0.0 0.928037 -0.372417
vn 0.024323 0.927854 -0.372112
vn 0.02765 0.927824 0.37196
vn 0.0 0.928129 0.372234
vn 0.0 0.729301 0.684164
vn 0.050783 0.727592 0.684103
vn 0.0 0.438856 0.898526
vn 0.066408 0.440901 0.895077
vn 0.363903 0.928953 -0.067843
vn 0.680258 0.721763 -0.127567
vn 0.870724 0.462325 0.167516
vn 0.870602 0.462355 -0.167974
vn 0.109043 0.92935 -0.352702
vn 0.265542 0.934599 -0.236549
vn 0.51735 0.720969 -0.460952
vn 0.204962 0.721274 -0.66158
vn 0.651509 0.488357 -0.580493
vn 0.266945 0.460524 -0.846522
vn 0.110996 0.929258 0.352336
vn 0.208563 0.721061 0.660695
vn 0.271493 0.460036 0.845332
vn 0.65334 0.487838 0.578875
vn 0.275826 -0.930601 0.240577
vn 0.432478 -0.816187 0.383129
vn 0.178991 -0.804163 0.566759
vn 0.02826 -0.943022 0.331462
vn 0.025513 -0.942686 -0.332682
vn 0.274972 -0.930601 -0.241462
vn 0.0 -0.945006 0.326975
vn 0.0 -0.945067 -0.326792
vn 0.57503 -0.811762 -0.101627
vn 0.57503 -0.811823 0.101138
vn 0.0 -0.789056 -0.614277
vn 0.0459 -0.795526 -0.604114
vn 0.050966 -0.796503 0.602435
vn 0.0 -0.790918 0.611896
vn 0.176031 -0.80398 -0.567949
vn 0.431349 -0.816187 -0.384381
vn -0.961547 0.274514 -0.002106
vn -0.657857 0.269814 0.703116
vn -0.665548 0.269539 0.695944
vn -0.961547 0.274514 -0.001617
vn 0.0 0.28489 -0.958525
vn -0.652974 0.270425 -0.707419
vn -0.660329 0.27018 -0.700674
vn 0.0 0.286142 0.958159
vn -0.363842 0.928983 0.067629
vn -0.680258 0.721824 0.127232
vn -0.518693 0.720878 0.459578
vn -0.266274 0.934538 0.235969
vn -0.064974 0.07181 -0.99527
vn -0.296091 0.081606 0.951659
vn -0.307047 0.082156 0.948119
vn -0.073916 0.072024 0.994659
vn -0.302011 0.082247 -0.949736
vn -0.290933 0.081668 -0.953246
vn -0.980316 0.081668 -0.179632
vn -0.978118 0.082247 -0.191015
vn -0.97824 0.082156 0.190497
vn -0.980407 0.081576 0.179174
vn -0.743126 0.095492 -0.662252
vn -0.743156 0.095492 -0.662252
vn -0.745109 0.095248 0.660054
vn -0.745109 0.095248 0.660085
vn -0.058412 0.44084 -0.895657
vn -0.044679 0.727256 -0.684866
vn -0.024323 0.927854 -0.372112
vn -0.02765 0.927824 0.37196
vn -0.050783 0.727592 0.684103
vn -0.066408 0.440901 0.895077
vn -0.363903 0.928953 -0.067843
vn -0.680258 0.721763 -0.127567
vn -0.870602 0.462355 -0.167974
vn -0.870724 0.462325 0.167516
vn -0.109043 0.92935 -0.352702
vn -0.204962 0.721274 -0.66158
vn -0.51735 0.720969 -0.460952
vn -0.265542 0.934599 -0.236549
vn -0.266945 0.460524 -0.846522
vn -0.651509 0.488357 -0.580493
vn -0.208563 0.721061 0.660695
vn -0.110996 0.929258 0.352336
vn -0.65334 0.487838 0.578875
vn -0.271493 0.460036 0.845332
vn -0.275826 -0.930601 0.240577
vn -0.178991 -0.804163 0.566759
vn -0.432478 -0.816187 0.383129
vn -0.02826 -0.943022 0.331462
vn -0.274972 -0.930601 -0.241462
vn -0.025513 -0.942686 -0.332682
vn -0.57503 -0.811823 0.101138
vn -0.57503 -0.811762 -0.101627
vn -0.0459 -0.795526 -0.604114
vn -0.050966 -0.796503 0.602435
vn -0.431349 -0.816187 -0.384381
vn -0.176031 -0.80398 -0.567949
vn 0.961547 0.274514 -0.002106
vn 0.961547 0.274514 -0.001617
vn 0.665548 0.269539 0.695944
vn 0.657857 0.269814 0.703116
vn 0.660329 0.27018 -0.700674
vn 0.652974 0.270425 -0.707419
vn 0.0 0.999969 0.0
usemtl material_0
f  2//1 1//1 4//1 3//1
f  1//1 2//1 7//1 5//1
f  10//1 6//1 8//1 9//1
f  6//1 5//1 7//1 8//1
usemtl material_1
f  110//2 116//3 38//4 23//5
f  68//6 105//7 12//7 47//6
f  11//8 17//9 118//10 109//8
f  105//7 115//11 15//12 12//7
f  48//13 11//8 109//8 108//13
f  112//14 111//15 13//16 14//17
f  114//18 16//19 15//12 115//11
f  118//10 17//9 18//20 119//21
f  19//22 106//23 69//24 21//25
f  21//25 69//24 67//26 20//27
f  24//28 107//29 66//30 26//31
f  26//31 66//30 65//32 25//33
f  27//34 110//2 23//5 29//35
f  29//35 23//5 22//36 28//37
f  112//14 14//17 16//19 114//18
f  31//38 113//39 34//40 32//41
f  32//41 34//40 33//42 30//43
f  116//3 117//44 36//45 38//4
f  38//4 36//45 35//46 37//47
f  20//27 31//38 32//41 21//25
f  21//25 32//41 30//43 19//22
f  34//40 29//35 28//37 33//42
f  119//21 18//20 13//16 111//15
f  117//44 24//28 26//31 36//45
f  36//45 26//31 25//33 35//46
f  113//39 27//34 29//35 34//40
f  42//48 104//49 103//50
f  39//51 40//52 41//53 42//48
f  82//54 84//55 40//52 39//51
f  23//5 38//4 37//47 22//36
f  42//48 41//53 99//56 100//57
f  40//52 84//55 98//58 97//59
f  42//48 100//57 104//49
f  39//51 42//48 103//50 95//60
f  82//54 39//51 95//60 96//61
f  41//53 102//62 101//63
f  41//53 101//63 99//56
f  41//53 40//52 97//59 102//62
f  120//64 121//65 126//66 125//67
f  128//1 124//1 93//1
f  93//1 45//1 90//1
f  123//68 44//69 43//70 89//68
f  124//1 46//1 45//1 93//1
f  121//65 122//71 127//71 126//66
f  44//69 120//64 125//67 43//70
f  139//72 61//73 81//74 145//75
f  68//6 47//6 50//76 137//76
f  147//77 55//78 49//79 138//79
f  137//76 50//76 53//80 144//81
f  138//79 49//79 48//13 108//13
f  141//82 52//83 51//84 140//85
f  143//86 144//81 53//80 54//87
f  147//77 148//88 56//89 55//78
f  57//90 59//91 69//24 106//23
f  59//91 58//92 67//26 69//24
f  62//93 64//94 66//30 107//29
f  64//94 63//95 65//32 66//30
f  70//96 72//97 61//73 139//72
f  72//97 71//98 60//99 61//73
f  141//82 143//86 54//87 52//83
f  74//100 75//101 77//102 142//103
f  75//101 73//104 76//105 77//102
f  145//75 81//74 79//106 146//107
f  81//74 80//108 78//109 79//106
f  58//92 59//91 75//101 74//100
f  59//91 57//90 73//104 75//101
f  77//102 76//105 71//98 72//97
f  148//88 140//85 51//84 56//89
f  146//107 79//106 64//94 62//93
f  79//106 78//109 63//95 64//94
f  142//103 77//102 72//97 70//96
f  87//110 135//111 136//112
f  83//113 87//110 86//114 85//115
f  82//54 83//113 85//115 84//55
f  61//73 60//99 80//108 81//74
f  87//110 132//116 131//117 86//114
f  85//115 130//118 98//58 84//55
f  87//110 136//112 132//116
f  83//113 129//119 135//111 87//110
f  82//54 96//61 129//119 83//113
f  86//114 133//120 134//121
f  86//114 131//117 133//120
f  86//114 134//121 130//118 85//115
f  149//122 152//123 153//124 150//125
f  128//1 93//1 151//1
f  93//1 90//1 92//1
f  123//68 89//68 88//126 91//127
f  151//1 93//1 92//1 94//1
f  150//125 153//124 127//71 122//71
f  91//127 88//126 152//123 149//122
usemtl material_2
f  181//1 154//1 164//1 171//128
f  182//1 159//128 156//1
f  160//1 154//1 181//1
f  161//1 154//1 160//1
f  157//1 154//1 161//1
f  156//1 180//1 155//1
f  156//1 159//128 180//1
f  159//128 183//1 180//1
f  158//128 182//1 156//1 157//1
f  161//1 158//128 157//1
f  155//1 176//1 166//1
f  155//1 180//1 176//1
f  180//1 184//1 176//1
f  180//1 163//1 184//1
f  180//1 162//1 163//1
f  180//1 175//1 162//1
f  180//1 179//1 175//1
f  186//1 171//128 164//1 165//1
f  187//1 168//1 172//128
f  173//1 186//1 165//1
f  173//1 165//1 174//1
f  165//1 169//1 174//1
f  168//1 167//1 172//128
f  167//1 185//1 172//128
f  185//1 188//1 172//128
f  170//128 169//1 168//1 187//1
f  174//1 169//1 170//128
f  167//1 166//1 185//1
f  166//1 176//1 185//1
f  176//1 189//1 185//1
f  189//1 178//1 185//1
f  178//1 177//1 185//1
f  177//1 175//1 185//1
f  175//1 179//1 185//1
