mtllib 493.mtl
v 0.47 0.23 0.1
v -0.47 0.23 0.1
v -0.469 0.23 0.1
v -0.43 0.19 0.1
v 0.43 0.23 0.1
v 0.23 0.23 0.1
v 0.19 0.19 0.1
v 0.229 0.23 0.1
v -0.47 0.0400002 0.1
v -0.43 0.0400002 0.1
v 0.43 0.0400002 0.1
v 0.23 0.0400002 0.1
v 0.19 0.00100029 0.1
v 0.47 2.38419E-7 0.1
v 0.19 2.38419E-7 0.1
v -0.47 0.23 0.0990002
v -0.47 0.0400002 0.0990002
v 0.19 0.19 0.0990002
v 0.23 0.0400002 0.0990002
v 0.43 0.0400002 0.0990002
v 0.229 0.23 0.0990002
v 0.43 0.23 0.0990002
v 0.47 0.23 0.0990002
v 0.47 2.38419E-7 0.0990002
v 0.23 0.23 0.0990002
v -0.43 0.0400002 0.0990002
v 0.19 0.00100029 0.0990002
v -0.43 0.19 0.0990002
v -0.469 0.23 0.0990002
v 0.19 2.38419E-7 0.0990002
v -0.43 0.0410002 0.0990002
v -0.47 0.0410002 0.0990002
v -0.431 0.0400002 0.1
v -0.431 0.0410002 0.1
v -0.469 0.0410002 0.1
v -0.469 0.0400002 0.1
v -0.43 0.0410002 0.1
v -0.47 0.0410002 0.1
v -0.469 0.0400002 0.0990002
v -0.431 0.0400002 0.0990002
v -0.47 0.229 0.1
v -0.469 0.229 0.1
v 0.23 0.229 0.1
v 0.229 0.229 0.1
v -0.47 0.229 0.0990002
v 0.23 0.229 0.0990002
v 0.469 0.23 0.1
v 0.469 2.38419E-7 0.1
v 0.469 0.23 0.0990002
v 0.469 2.38419E-7 0.0990002
v 0.191 2.38419E-7 0.1
v 0.191 0.00100029 0.1
v 0.431 0.23 0.0990002
v 0.431 0.23 0.1
v 0.191 2.38419E-7 0.0990002
v -0.429 0.19 0.1
v -0.429 0.19 0.0990002
v 0.19 0.189 0.1
v -0.43 0.189 0.0990002
v 0.19 0.189 0.0990002
v 0.191 0.191 0.1
v -0.431 0.191 0.1
v -0.43 0.189 0.1
v 0.189 0.19 0.1
v 0.189 0.19 0.0990002
v 0.23 0.0410002 0.1
v 0.23 0.0410002 0.0990002
v 0.231 0.0400002 0.1
v 0.231 0.0400002 0.0990002
v 0.229 0.0390002 0.1
v 0.47 0.229 0.1
v 0.43 0.229 0.1
v 0.429 0.0400002 0.1
v 0.43 0.229 0.0990002
v 0.47 0.229 0.0990002
v 0.469 0.229 0.1
v 0.431 0.229 0.1
v 0.431 0.0390002 0.1
v 0.429 0.0400002 0.0990002
v 0.469 0.00100029 0.1
v 0.47 0.00100029 0.0990002
v 0.43 0.0410002 0.1
v 0.43 0.0410002 0.0990002
v 0.47 0.00100029 0.1
v 0.47 0.23 -0.0999998
v -0.47 0.23 -0.0999999
v -0.469 0.23 -0.0999999
v -0.43 0.19 -0.0999999
v 0.43 0.23 -0.0999998
v 0.23 0.23 -0.0999999
v 0.19 0.19 -0.0999999
v 0.229 0.23 -0.0999999
v -0.47 0.0400002 -0.0999999
v -0.43 0.0400002 -0.0999999
v 0.43 0.0400002 -0.0999998
v 0.23 0.0400002 -0.0999998
v 0.19 0.00100029 -0.0999998
v 0.47 2.38419E-7 -0.0999998
v 0.19 2.38419E-7 -0.0999998
v -0.47 0.23 -0.0989999
v -0.47 0.0400002 -0.0989999
v 0.19 0.19 -0.0989999
v 0.23 0.0400002 -0.0989998
v 0.43 0.0400002 -0.0989998
v 0.229 0.23 -0.0989999
v 0.43 0.23 -0.0989998
v 0.47 0.23 -0.0989998
v 0.47 2.38419E-7 -0.0989998
v 0.23 0.23 -0.0989999
v -0.43 0.0400002 -0.0989999
v 0.19 0.00100029 -0.0989998
v -0.43 0.19 -0.0989999
v -0.469 0.23 -0.0989999
v 0.19 2.38419E-7 -0.0989998
v -0.43 0.0410002 -0.0989999
v -0.47 0.0410002 -0.0989999
v -0.431 0.0400002 -0.0999999
v -0.431 0.0410002 -0.0999999
v -0.469 0.0410002 -0.0999999
v -0.469 0.0400002 -0.0999999
v -0.43 0.0410002 -0.0999999
v -0.47 0.0410002 -0.0999999
v -0.469 0.0400002 -0.0989999
v -0.431 0.0400002 -0.0989999
v -0.47 0.229 -0.0999999
v -0.469 0.229 -0.0999999
v 0.23 0.229 -0.0999999
v 0.229 0.229 -0.0999999
v -0.47 0.229 -0.0989999
v 0.23 0.229 -0.0989999
v 0.469 0.23 -0.0999998
v 0.469 2.38419E-7 -0.0999998
v 0.469 0.23 -0.0989998
v 0.469 2.38419E-7 -0.0989998
v 0.191 2.38419E-7 -0.0999998
v 0.191 0.00100029 -0.0999998
v 0.431 0.23 -0.0989998
v 0.431 0.23 -0.0999998
v 0.191 2.38419E-7 -0.0989998
v -0.429 0.19 -0.0999999
v -0.429 0.19 -0.0989999
v 0.19 0.189 -0.0999999
v -0.43 0.189 -0.0989999
v 0.19 0.189 -0.0989999
v 0.191 0.191 -0.0999999
v -0.431 0.191 -0.0999999
v -0.43 0.189 -0.0999999
v 0.189 0.19 -0.0999999
v 0.189 0.19 -0.0989999
v 0.23 0.0410002 -0.0999998
v 0.23 0.0410002 -0.0989998
v 0.231 0.0400002 -0.0999998
v 0.231 0.0400002 -0.0989998
v 0.229 0.0390002 -0.0999998
v 0.47 0.229 -0.0999998
v 0.43 0.229 -0.0999998
v 0.429 0.0400002 -0.0999998
v 0.43 0.229 -0.0989998
v 0.47 0.229 -0.0989998
v 0.469 0.229 -0.0999998
v 0.431 0.229 -0.0999998
v 0.431 0.0390002 -0.0999998
v 0.429 0.0400002 -0.0989998
v 0.469 0.00100029 -0.0999998
v 0.47 0.00100029 -0.0989998
v 0.43 0.0410002 -0.0999998
v 0.43 0.0410002 -0.0989998
v 0.47 0.00100029 -0.0999998
vt 0.342206 0.773803
vt 0.344147 0.773803
vt 0.344148 1.21652
vt 0.342209 1.21652
vt 0.262603 1.21652
vt 0.264543 1.21652
vt 0.264543 1.21846
vt 0.262603 1.21846
vt -0.112145 0.841769
vt -0.114086 0.84177
vt -0.114086 0.839828
vt -0.112145 0.83983
vt 1.06842 0.934964
vt 1.07036 0.934963
vt 1.07036 0.936904
vt 1.06842 0.936903
vt 1.14997 0.569912
vt 1.14803 0.569912
vt 1.14803 0.567972
vt 1.14997 0.567973
vt 1.14997 0.938842
vt 1.14803 0.938842
vt 1.14803 0.936904
vt 1.14997 0.936904
vt 1.11706 0.245639
vt 1.119 0.245638
vt 1.119 0.247578
vt 1.11706 0.247577
vt 0.342208 1.21846
vt 0.344148 1.21846
vt 0.344148 1.2204
vt 0.342207 1.2204
vt 0.214089 0.70199
vt 0.216032 0.701989
vt 0.216032 0.703935
vt 0.214089 0.703931
vt 0.262598 0.851474
vt 0.262598 0.849535
vt 0.264538 0.849533
vt 0.264538 0.851474
vt 1.53445 1.01263
vt 1.14997 1.01263
vt 1.53445 0.938842
vt 0.728618 1.29613
vt 0.344148 1.29613
vt 0.344148 1.29419
vt 0.728618 1.29419
vt 1.19667 0.323305
vt 1.19861 0.323305
vt 1.19861 0.325243
vt 1.19667 0.325244
vt -0.191764 0.764099
vt -0.193714 0.764098
vt -0.193714 0.762156
vt -0.191767 0.762152
vt 1.07231 0.934964
vt 1.07231 0.936905
vt 1.14997 1.01457
vt 1.14803 1.01457
vt 1.14803 1.01263
vt 1.14609 0.936904
vt 1.14609 0.934964
vt 1.14803 0.934964
vt 1.06842 0.647583
vt 1.07036 0.647583
vt 1.14997 0.934965
vt 0.728617 1.2204
vt 0.728617 1.21846
vt 0.34221 1.21846
vt 0.34027 1.21846
vt 0.34027 1.21652
vt 0.342207 1.29419
vt 0.266483 1.21846
vt 0.266483 1.21652
vt 0.342208 1.29613
vt 0.266479 0.84759
vt -0.191771 1.30584
vt -0.193711 1.30584
vt -0.193711 1.3039
vt -0.19177 1.3039
vt 0.21404 -0.49808
vt 0.215981 -0.498079
vt 1.19667 -0.043687
vt 1.19861 -0.043686
vt 1.19861 -0.041747
vt 1.19667 -0.041747
vt 1.07231 0.6437
vt 0.272319 0.841779
vt 0.272319 0.839842
vt 1.06842 0.645644
vt 1.07036 0.645643
vt 0.21404 -0.500019
vt 0.215981 -0.50002
vt -0.112156 1.22817
vt -0.114097 1.22817
vt -0.114097 1.22623
vt -0.112156 1.22623
vt -0.121865 1.21653
vt -0.121865 1.21847
vt -0.116039 1.23012
vt -0.116029 0.837885
vt 0.340265 0.773803
vt -0.189812 0.764098
vt 0.342207 0.771863
vt 0.344147 0.771864
vt -0.189828 1.3039
vt 0.683955 0.647586
vt 0.683956 0.934966
vt -0.1704 0.702007
vt -0.170399 0.703931
vt 0.732594 0.24564
vt 0.732594 0.247579
vt 0.683956 0.936905
vt 1.53445 0.936903
vt 1.53445 0.934965
vt 1.58308 0.323304
vt 1.58308 0.325242
vt -0.578176 0.7641
vt -0.578177 0.76216
vt 1.53444 0.569911
vt 1.53444 0.567973
vt 0.732593 -0.12135
vt 1.11706 -0.121352
vt 1.11706 -0.119413
vt 0.732593 -0.119412
vt -0.578174 1.30584
vt -0.578174 1.3039
vt 1.119 -0.119413
vt 1.119 -0.121352
vt 1.12094 -0.119413
vt -0.12187 0.851479
vt -0.170448 -0.499989
vt -0.170449 -0.498064
vt 0.272309 1.22818
vt 0.272309 1.22624
vt 1.58308 -0.043686
vt 1.58308 -0.041748
vt 0.728617 1.21652
vt 1.53445 1.01457
vt 0.683955 0.645647
vt 0.728616 0.773802
vt -0.12187 0.849541
vt 0.728616 0.771862
vt 1.19473 -0.045627
vt 1.12094 0.249519
vt 0.680085 -0.575769
vt 0.295594 -0.575757
vt 0.295594 -0.577695
vt 0.680085 -0.577705
vt 0.293653 -0.575757
vt 0.293654 -0.577697
vt 0.291711 -0.575757
vt 0.217923 -0.501962
vt 1.19473 0.323305
vt 1.14609 0.569912
vt 0.293707 0.779674
vt 0.295638 0.779673
vt 0.295639 0.781608
vt 0.293706 0.781606
vt 0.68013 0.77966
vt 0.217982 0.705886
vt 0.291777 0.779674
vt 0.68013 0.781595
vt 0.730559 0.773802
vt 0.73056 1.21652
vt -0.123805 1.21847
vt -0.123806 1.21653
vt 0.274257 0.839842
vt 0.274257 0.841779
vt 0.682015 0.936906
vt 0.682015 0.934966
vt 1.53638 0.567972
vt 1.53638 0.569911
vt 1.53638 0.936903
vt 1.53639 0.938842
vt 0.730654 0.24758
vt 0.730654 0.24564
vt 0.730557 1.21846
vt 0.730558 1.2204
vt -0.17231 0.70392
vt -0.172307 0.70201
vt -0.12381 0.851479
vt -0.123809 0.84954
vt 1.58502 0.323304
vt 1.58502 0.325242
vt -0.58012 0.764101
vt -0.580119 0.762158
vt 0.680074 0.936907
vt 0.680073 0.934966
vt 1.53639 1.01263
vt 1.53638 1.01457
vt 0.606286 0.936908
vt 0.604345 0.936908
vt 0.604345 0.934966
vt 0.606286 0.934966
vt 0.682014 0.647586
vt 1.53638 0.934964
vt 0.732504 1.21652
vt 0.732504 1.21846
vt 0.73056 1.21846
vt 0.730559 1.29419
vt 0.806291 1.21652
vt 0.80629 1.21846
vt 0.808231 1.21652
vt 0.808232 1.21846
vt 0.730558 1.29613
vt 0.808232 0.849529
vt 0.808232 0.85147
vt 0.806291 0.847588
vt -0.580116 1.30584
vt -0.580118 1.3039
vt -0.172356 -0.498067
vt 1.58502 -0.043687
vt 1.58502 -0.041748
vt 0.680072 0.643703
vt 0.682014 0.645646
vt -0.17236 -0.499977
vt 0.274246 1.22624
vt 0.274246 1.22818
vt -0.657792 1.22623
vt -0.657793 0.841773
vt -0.65585 0.837887
vt -0.655848 1.23012
vt 0.732504 0.773802
vt -0.582065 0.764101
vt 0.730558 0.771859
vt -0.582063 1.3039
vt -0.657793 0.83983
vt 0.730653 -0.119412
vt 0.728713 -0.119412
vt 0.730654 -0.121351
vt 0.654926 -0.045625
vt 0.652985 -0.041745
vt 0.652986 -0.043685
vt 0.728712 0.249523
vt -0.657792 1.22817
vt 0.682018 -0.577703
vt 0.682017 -0.575769
vt -0.249977 -0.575656
vt -0.249977 -0.577585
vt -0.248048 -0.575656
vt -0.174263 -0.501877
vt 0.654925 0.32331
vt 0.652983 0.325252
vt 0.652983 0.32331
vt 0.606286 0.569917
vt 0.604345 0.569917
vt 0.604345 0.567976
vt 0.682061 0.779659
vt 0.682064 0.781591
vt -0.174213 0.705821
vt -0.249922 0.779606
vt -0.247992 0.779606
vt -0.249922 0.781535
vn 0.707083 0.0 0.707083
vn 1.0 0.0 0.0
vn -1.0 0.0 0.0
vn -0.707083 0.0 0.707083
vn -0.577349 0.577349 0.577349
vn -0.707083 0.707083 0.0
vn 0.0 1.0 0.0
vn 0.0 0.707083 0.707083
vn -0.301492 0.301492 0.904508
vn 0.577349 -0.577349 0.577349
vn 0.707083 -0.707083 0.0
vn 0.0 -1.0 0.0
vn 0.0 -0.707083 0.707083
vn -0.577349 -0.577349 0.577349
vn -0.707083 -0.707083 0.0
vn -0.301492 -0.301492 0.904508
vn 0.577349 0.577349 0.577349
vn 0.707083 0.707083 0.0
vn 0.301492 -0.301492 0.904508
vn 0.0 0.0 1.0
vn 0.301492 0.301492 0.904508
vn 0.0 0.0 0.999969
vn 0.707083 0.0 -0.707083
vn -0.577349 0.577349 -0.577349
vn -0.707083 0.0 -0.707083
vn -0.301492 0.301492 -0.904508
vn 0.0 0.707083 -0.707083
vn 0.577349 -0.577349 -0.577349
vn -0.577349 -0.577349 -0.577349
vn 0.0 -0.707083 -0.707083
vn -0.301492 -0.301492 -0.904508
vn 0.577349 0.577349 -0.577349
vn 0.301492 -0.301492 -0.904508
vn 0.0 0.0 -1.0
vn 0.301492 0.301492 -0.904508
vn 0.0 0.0 -0.999969
usemtl material_0
f  84/1/1 81/2/2 75/3/2 71/4/1
f  74/5/3 72/6/4 5/7/5 22/8/6
f  79/9/7 73/10/8 11/11/9 20/12/6
f  31/13/2 37/14/1 10/15/10 26/16/11
f  45/17/3 41/18/4 2/19/5 16/20/6
f  39/21/12 36/22/13 9/23/14 17/24/15
f  60/25/3 58/26/4 7/27/16 18/28/15
f  1/29/17 23/30/18 49/31/7 47/32/8
f  57/33/12 56/34/13 4/35/19 28/36/11
f  83/37/3 20/38/6 11/39/9 82/40/4
f  124/41/12 40/42/12 39/21/12 123/43/12
f  106/44/6 22/45/6 53/46/7 137/47/7
f  43/48/1 46/49/2 25/50/18 6/51/17
f  48/52/13 50/53/12 24/54/11 14/55/10
f  10/15/10 37/14/1 34/56/20 33/57/13
f  26/58/11 10/59/10 33/60/13 40/42/12
f  36/61/13 35/62/20 38/63/4 9/23/14
f  59/64/2 63/65/1 37/14/1 31/13/2
f  33/57/13 34/56/20 35/62/20 36/61/13
f  40/42/12 33/60/13 36/22/13 39/21/12
f  17/24/15 9/23/14 38/63/4 32/66/3
f  133/67/7 49/31/7 23/30/18 107/68/18
f  71/4/1 1/69/17 47/70/8 76/71/20
f  53/46/7 54/72/8 47/32/8 49/31/7
f  76/71/20 47/70/8 54/73/8 77/74/20
f  77/74/20 54/73/8 5/7/5 72/6/4
f  22/45/6 5/75/5 54/72/8 53/46/7
f  11/39/9 78/76/20 82/40/4
f  15/77/14 30/78/15 55/79/12 51/80/13
f  65/81/12 64/82/13 56/34/13 57/33/12
f  12/83/21 19/84/18 67/85/2 66/86/1
f  37/14/1 63/65/1 62/87/22 34/56/20
f  163/88/7 79/9/7 20/12/6 104/89/6
f  28/90/11 4/91/19 63/65/1 59/64/2
f  18/92/15 7/93/16 64/82/13 65/81/12
f  51/80/13 55/79/12 50/53/12 48/52/13
f  19/94/18 12/95/21 68/96/8 69/97/7
f  158/98/3 74/5/3 22/8/6 106/99/6
f  68/96/8 70/100/20 78/101/20 73/10/8
f  23/30/18 1/69/17 71/4/1 75/3/2
f  69/97/7 68/96/8 73/10/8 79/9/7
f  80/102/22 84/1/1 71/4/1 76/71/20
f  48/52/13 14/55/10 80/103/22
f  81/2/2 84/1/1 14/104/10 24/105/11
f  82/40/4 78/76/20 77/74/20 72/6/4
f  52/106/22 51/80/13 48/52/13 80/103/22
f  70/100/20 52/106/22 80/103/22 78/101/20
f  74/5/3 83/37/3 82/40/4 72/6/4
f  73/10/8 78/101/20 11/11/9
f  78/76/20 80/102/22 76/71/20 77/74/20
f  80/102/22 14/104/10 84/1/1
f  143/107/2 59/64/2 31/13/2 115/108/2
f  141/109/12 57/33/12 28/36/11 112/110/11
f  144/111/3 60/25/3 18/28/15 102/112/15
f  115/108/2 31/13/2 26/16/11 110/113/11
f  101/114/15 17/24/15 32/66/3 116/115/3
f  46/49/2 130/116/2 109/117/18 25/50/18
f  50/53/12 134/118/12 108/119/11 24/54/11
f  129/120/3 45/17/3 16/20/6 100/121/6
f  52/106/22 15/77/14 51/80/13
f  114/122/15 30/123/15 27/124/3 111/125/3
f  30/78/15 114/126/15 139/127/12 55/79/12
f  13/128/4 15/129/14 52/130/22
f  137/47/7 53/46/7 49/31/7 133/67/7
f  167/131/3 83/37/3 74/5/3 158/98/3
f  102/132/15 18/92/15 65/81/12 149/133/12
f  123/43/12 39/21/12 17/24/15 101/114/15
f  149/133/12 65/81/12 57/33/12 141/109/12
f  30/123/15 15/129/14 13/128/4 27/124/3
f  103/134/18 19/94/18 69/97/7 153/135/7
f  19/84/18 103/136/18 151/137/2 67/85/2
f  107/68/18 23/30/18 75/3/2 159/138/2
f  110/139/11 26/58/11 40/42/12 124/41/12
f  112/140/11 28/90/11 59/64/2 143/107/2
f  153/135/7 69/97/7 79/9/7 163/88/7
f  159/138/2 75/3/2 81/2/2 165/141/2
f  104/142/6 20/38/6 83/37/3 167/131/3
f  165/141/2 81/2/2 24/105/11 108/143/11
f  111/125/3 27/124/3 60/25/3 144/111/3
f  70/144/20 12/83/21 66/86/1
f  27/124/3 13/128/4 58/26/4 60/25/3
f  58/26/4 13/128/4 52/130/22 61/145/20
f  105/146/7 21/147/7 25/148/18 109/149/18
f  12/95/21 70/100/20 68/96/8
f  21/147/7 8/150/8 6/151/17 25/148/18
f  8/150/8 44/152/20 6/151/17
f  116/115/3 32/66/3 45/17/3 129/120/3
f  66/86/1 67/85/2 46/49/2 43/48/1
f  7/93/16 61/153/20 64/82/13
f  7/27/16 58/26/4 61/145/20
f  61/145/20 52/130/22 70/144/20 44/154/20
f  6/51/17 44/154/20 43/48/1
f  44/154/20 70/144/20 66/86/1 43/48/1
f  67/85/2 151/137/2 130/116/2 46/49/2
f  42/155/20 2/19/5 41/18/4
f  3/156/8 29/157/7 16/158/6 2/159/5
f  21/147/7 105/146/7 113/160/7 29/157/7
f  63/65/1 4/91/19 62/87/22
f  56/34/13 62/161/22 4/35/19
f  35/62/20 42/155/20 41/18/4 38/63/4
f  34/56/20 62/87/22 42/155/20 35/62/20
f  32/66/3 38/63/4 41/18/4 45/17/3
f  3/156/8 2/159/5 42/162/20
f  29/157/7 113/160/7 100/163/6 16/158/6
f  44/152/20 8/150/8 3/156/8 42/162/20
f  8/150/8 21/147/7 29/157/7 3/156/8
f  61/153/20 44/152/20 42/162/20 62/161/22
f  64/82/13 61/153/20 62/161/22 56/34/13
f  168/164/23 155/165/23 159/138/2 165/141/2
f  158/98/3 106/99/6 89/166/24 156/167/25
f  163/88/7 104/89/6 95/168/26 157/169/27
f  115/108/2 110/113/11 94/170/28 121/171/23
f  129/120/3 100/121/6 86/172/24 125/173/25
f  123/43/12 101/114/15 93/174/29 120/175/30
f  144/111/3 102/112/15 91/176/31 142/177/25
f  133/67/7 107/68/18 85/178/32 131/179/27
f  141/109/12 112/110/11 88/180/33 140/181/30
f  167/131/3 166/182/25 95/183/26 104/142/6
f  127/184/23 90/185/32 109/117/18 130/116/2
f  132/186/30 98/187/28 108/119/11 134/118/12
f  94/170/28 117/188/30 118/189/34 121/171/23
f  110/139/11 124/41/12 117/190/30 94/191/28
f  120/192/30 93/193/29 122/194/25 119/195/34
f  143/107/2 115/108/2 121/171/23 147/196/23
f  117/188/30 120/192/30 119/195/34 118/189/34
f  124/41/12 123/43/12 120/175/30 117/190/30
f  101/114/15 116/115/3 122/197/25 93/174/29
f  155/165/23 160/198/34 131/199/27 85/200/32
f  137/47/7 133/67/7 131/179/27 138/201/27
f  160/198/34 161/202/34 138/203/27 131/199/27
f  161/202/34 156/204/25 89/205/24 138/203/27
f  106/44/6 137/47/7 138/201/27 89/206/24
f  95/207/26 166/208/25 162/209/34
f  99/210/29 135/211/30 139/127/12 114/126/15
f  149/133/12 141/109/12 140/181/30 148/212/30
f  96/213/35 150/214/23 151/137/2 103/136/18
f  121/171/23 118/189/34 146/215/36 147/196/23
f  112/140/11 143/107/2 147/196/23 88/216/33
f  102/132/15 149/133/12 148/212/30 91/217/31
f  135/211/30 132/186/30 134/118/12 139/127/12
f  103/134/18 153/135/7 152/218/27 96/219/35
f  152/220/27 157/221/27 162/222/34 154/223/34
f  107/68/18 159/138/2 155/165/23 85/200/32
f  153/135/7 163/88/7 157/169/27 152/218/27
f  164/224/36 160/198/34 155/165/23 168/164/23
f  132/186/30 164/225/36 98/187/28
f  165/141/2 108/143/11 98/226/28 168/164/23
f  166/208/25 156/204/25 161/202/34 162/209/34
f  136/227/36 164/225/36 132/186/30 135/211/30
f  154/223/34 162/222/34 164/225/36 136/227/36
f  158/98/3 156/167/25 166/182/25 167/131/3
f  157/221/27 95/228/26 162/222/34
f  162/209/34 161/202/34 160/198/34 164/224/36
f  164/224/36 168/164/23 98/226/28
f  136/227/36 135/211/30 99/210/29
f  97/229/25 136/230/36 99/231/29
f  114/122/15 111/125/3 97/229/25 99/231/29
f  154/232/34 150/233/23 96/234/35
f  111/125/3 144/111/3 142/177/25 97/229/25
f  142/177/25 145/235/34 136/230/36 97/229/25
f  96/236/35 152/220/27 154/223/34
f  105/146/7 109/149/18 90/237/32 92/238/27
f  92/239/27 90/240/32 128/241/34
f  150/214/23 127/184/23 130/116/2 151/137/2
f  91/217/31 148/212/30 145/242/34
f  91/176/31 145/235/34 142/177/25
f  145/235/34 128/243/34 154/232/34 136/230/36
f  90/244/32 127/245/23 128/243/34
f  128/243/34 127/245/23 150/233/23 154/232/34
f  126/246/34 125/247/25 86/248/24
f  87/249/27 86/250/24 100/163/6 113/160/7
f  147/196/23 146/215/36 88/216/33
f  140/181/30 88/180/33 146/251/36
f  119/195/34 122/194/25 125/247/25 126/246/34
f  118/189/34 119/195/34 126/246/34 146/215/36
f  116/115/3 129/120/3 125/173/25 122/197/25
f  87/252/27 126/253/34 86/254/24
f  128/241/34 126/253/34 87/252/27 92/239/27
f  92/238/27 87/249/27 113/160/7 105/146/7
f  145/242/34 146/251/36 126/253/34 128/241/34
f  148/212/30 140/181/30 146/251/36 145/242/34
f  55/79/12 139/127/12 134/118/12 50/53/12
