mtllib s__1816.mtl
v 0.0838115 0.01 -0.108169
v 0.085 0.00881155 0.108326
v 0.0838115 0.01 0.108169
v 0.0731692 0.00999999 -0.118812
v 0.0733256 0.00881154 -0.12
v 0.0834359 0.00881154 -0.114163
v 0.0823704 0.00999999 -0.113548
v 0.0791628 0.00881154 -0.118436
v 0.0785476 0.00999999 -0.11737
v 0.0733256 0.00881155 0.12
v 0.0731692 0.01 0.118812
v 0.0791628 0.00881155 0.118436
v 0.0785476 0.01 0.11737
v 0.0834359 0.00881155 0.114163
v 0.0823704 0.01 0.113548
v -0.0838115 0.01 -0.108169
v -0.085 0.00881155 0.108326
v -0.0838115 0.01 0.108169
v -0.0731692 0.00999999 -0.118812
v -0.0733256 0.00881154 -0.12
v -0.0834359 0.00881154 -0.114163
v -0.0823704 0.00999999 -0.113548
v -0.0791628 0.00881154 -0.118436
v -0.0785476 0.00999999 -0.11737
v -0.0733256 0.00881155 0.12
v -0.0731692 0.01 0.118812
v -0.0791628 0.00881155 0.118436
v -0.0785476 0.01 0.11737
v -0.0834359 0.00881155 0.114163
v -0.0823704 0.01 0.113548
v 0.085 0.00881154 -0.108326
v -0.085 0.00881154 -0.108326
v 0.0770168 0.01 0.0963758
v 0.0770168 0.01 -0.0966616
v -0.0770168 0.01 0.0963758
v -0.0770168 0.01 -0.0966616
v 0.0770168 0.01 0.0963758
v 0.0770168 0.01 -0.0966616
v 0.085 0.00881154 -0.108326
v 0.085 0.0042663 -0.108326
v 0.0807337 -4.65661E-9 -0.107764
v 0.0807337 4.65661E-9 0.107764
v 0.085 0.00426631 0.108326
v 0.0733256 0.0042663 -0.12
v 0.0727639 -5.12227E-9 -0.115734
v 0.0791628 0.0042663 -0.118436
v 0.0769544 -5.12227E-9 -0.114611
v 0.0834359 0.0042663 -0.114163
v 0.0796109 -5.12227E-9 -0.111954
v 0.0727639 5.12227E-9 0.115734
v 0.0733256 0.00426631 0.12
v 0.0834359 0.00426631 0.114163
v 0.0796109 5.12227E-9 0.111954
v 0.0791628 0.00426631 0.118436
v 0.0769544 5.12227E-9 0.114611
v -0.0770168 0.01 0.0963758
v -0.0770168 0.01 -0.0966616
v -0.085 0.00881154 -0.108326
v -0.085 0.0042663 -0.108326
v -0.0807337 -4.65661E-9 -0.107764
v -0.0807337 4.65661E-9 0.107764
v -0.085 0.00426631 0.108326
v -0.0733256 0.0042663 -0.12
v -0.0727639 -5.12227E-9 -0.115734
v -0.0791628 0.0042663 -0.118436
v -0.0769544 -5.12227E-9 -0.114611
v -0.0834359 0.0042663 -0.114163
v -0.0796109 -5.12227E-9 -0.111954
v -0.0727639 5.12227E-9 0.115734
v -0.0733256 0.00426631 0.12
v -0.0834359 0.00426631 0.114163
v -0.0796109 5.12227E-9 0.111954
v -0.0791628 0.00426631 0.118436
v -0.0769544 5.12227E-9 0.114611
v -0.00116702 0.01 -0.105995
v -0.00116702 0.01 -0.108327
v -0.00162288 0.01 -0.107204
v 0.085 0.00881155 0.108326
v 0.0838115 0.01 -0.108169
v 0.0838115 0.01 0.108169
v 0.0785476 0.00999999 -0.11737
v 0.0823704 0.00999999 -0.113548
v 0.0834359 0.00881154 -0.114163
v 0.0791628 0.00881154 -0.118436
v 0.0731692 0.00999999 -0.118812
v 0.0733256 0.00881154 -0.12
v 0.0785476 0.01 0.11737
v 0.0731692 0.01 0.118812
v 0.0733256 0.00881155 0.12
v 0.0791628 0.00881155 0.118436
v 0.0823704 0.01 0.113548
v 0.0834359 0.00881155 0.114163
v 0.00116702 0.01 -0.105995
v 0.00162288 0.01 -0.107204
v 0.00116702 0.01 -0.108327
v 0.0 0.01 -0.108825
v 0.0 0.01 -0.10541
v -0.085 0.00881155 0.108326
v -0.0838115 0.01 -0.108169
v -0.0838115 0.01 0.108169
v -0.0785476 0.00999999 -0.11737
v -0.0823704 0.00999999 -0.113548
v -0.0834359 0.00881154 -0.114163
v -0.0791628 0.00881154 -0.118436
v -0.0731692 0.00999999 -0.118812
v -0.0733256 0.00881154 -0.12
v -0.0785476 0.01 0.11737
v -0.0731692 0.01 0.118812
v -0.0733256 0.00881155 0.12
v -0.0791628 0.00881155 0.118436
v -0.0823704 0.01 0.113548
v -0.0834359 0.00881155 0.114163
v 0.00116702 0.00963063 -0.108327
v 0.00116702 0.00963063 -0.105995
v 0.00116702 0.01 -0.105995
v 0.00116702 0.01 -0.108327
v 0.00162288 0.01 -0.107204
v 0.00162288 0.00963063 -0.107204
v 0.0 0.01 -0.108825
v 0.0 0.01 -0.10541
v -0.00116702 0.00963063 -0.108327
v -0.00116702 0.00963063 -0.105995
v 0.0 0.00963063 -0.10541
v 0.0 0.00963063 -0.108825
v -0.00162288 0.00963063 -0.107204
v -0.00116702 0.01 -0.105995
v -0.00162288 0.01 -0.107204
v -0.00116702 0.01 -0.108327
vn 0.698019 0.710135 0.091891
vn 0.601642 0.71923 0.347362
vn 0.698019 0.710135 -0.091891
vn 0.347362 0.71923 -0.601642
vn 0.601642 0.71923 -0.347362
vn 0.091891 0.710135 -0.698019
vn 0.347362 0.71923 0.601642
vn 0.091891 0.710135 0.698019
vn -0.698019 0.710135 0.091891
vn -0.601642 0.71923 0.347362
vn -0.698019 0.710135 -0.091891
vn -0.347362 0.71923 -0.601642
vn -0.601642 0.71923 -0.347362
vn -0.091891 0.710135 -0.698019
vn -0.347362 0.71923 0.601642
vn -0.091891 0.710135 0.698019
vn 0.0 1.0 0.0
vn 0.053133 -0.913327 -0.403668
vn -0.053133 -0.913327 -0.403668
vn -0.121036 -0.37373 -0.919584
vn 0.121036 -0.37373 -0.919584
vn 0.053133 -0.913327 0.403668
vn 0.212836 -0.904843 0.368664
vn 0.368664 -0.904843 0.212836
vn 0.403668 -0.913327 0.053133
vn 0.403668 -0.913327 -0.053133
vn 0.368664 -0.904843 -0.212836
vn 0.212836 -0.904843 -0.368664
vn 0.866024 0.0 -0.499985
vn 0.804804 -0.369243 -0.464644
vn 0.464644 -0.369243 -0.804804
vn 0.499985 0.0 -0.866024
vn -0.130497 0.0 0.991424
vn -0.121036 -0.37373 0.919584
vn 0.121036 -0.37373 0.919584
vn 0.130497 0.0 0.991424
vn 0.991424 0.0 -0.130497
vn 0.919584 -0.37373 -0.121036
vn 0.499985 0.0 0.866024
vn 0.464644 -0.369243 0.804804
vn 0.804804 -0.369243 0.464644
vn 0.866024 0.0 0.499985
vn 0.130497 0.0 -0.991424
vn 0.991424 0.0 0.130497
vn 0.919584 -0.37373 0.121036
vn -0.053133 -0.913327 0.403668
vn -0.130497 0.0 -0.991424
vn -0.212836 -0.904843 0.368664
vn -0.368664 -0.904843 0.212836
vn -0.403668 -0.913327 0.053133
vn -0.403668 -0.913327 -0.053133
vn -0.368664 -0.904843 -0.212836
vn -0.212836 -0.904843 -0.368664
vn -0.866024 0.0 -0.499985
vn -0.499985 0.0 -0.866024
vn -0.464644 -0.369243 -0.804804
vn -0.804804 -0.369243 -0.464644
vn -0.991424 0.0 -0.130497
vn -0.919584 -0.37373 -0.121036
vn -0.499985 0.0 0.866024
vn -0.866024 0.0 0.499985
vn -0.804804 -0.369243 0.464644
vn -0.464644 -0.369243 0.804804
vn -0.919584 -0.37373 0.121036
vn -0.991424 0.0 0.130497
vn 0.0 0.999969 0.0
vn 0.0 0.0 -1.0
vn -0.742821 0.0 -0.669454
vn -0.574725 0.633534 -0.51796
vn 0.0 0.618824 -0.785485
vn 0.0 0.628498 0.777795
vn -0.773644 0.633534 0.009705
vn -0.553667 0.630543 0.543901
vn -0.999908 0.0 0.012543
vn -0.71334 0.0 0.700766
vn 0.0 0.0 1.0
vn 0.574725 0.633534 -0.51796
vn 0.742821 0.0 -0.669454
vn 0.773644 0.633534 0.009705
vn 0.553667 0.630543 0.543901
vn 0.999908 0.0 0.012543
vn 0.71334 0.0 0.700766
usemtl material_0
f  3//1 15//2 14//2 2//1
f  1//3 3//1 2//1 31//3
f  9//4 7//5 6//5 8//4
f  4//6 9//4 8//4 5//6
f  13//7 11//8 10//8 12//7
f  15//2 13//7 12//7 14//2
f  7//5 1//3 31//3 6//5
f  18//9 17//9 29//10 30//10
f  17//9 18//9 16//11 32//11
f  24//12 23//12 21//13 22//13
f  19//14 20//14 23//12 24//12
f  28//15 27//15 25//16 26//16
f  30//10 29//10 27//15 28//15
f  22//13 21//13 32//11 16//11
f  5//6 20//14 19//14 4//6
f  26//16 25//16 10//8 11//8
usemtl material_1
f  36//17 35//17 34//17
f  35//17 33//17 34//17
usemtl material_2
f  45//18 64//19 63//20 44//21
f  50//22 45//18 55//23
f  45//18 53//24 55//23
f  45//18 42//25 53//24
f  45//18 41//26 42//25
f  45//18 49//27 41//26
f  45//18 47//28 49//27
f  83//29 48//30 46//31 84//32
f  109//33 70//34 51//35 89//36
f  39//37 40//38 48//30 83//29
f  90//39 54//40 52//41 92//42
f  89//36 51//35 54//40 90//39
f  84//32 46//31 44//21 86//43
f  39//37 78//44 43//45 40//38
f  38//17 37//17 80//17 79//17
f  37//17 56//17 108//17 88//17
f  42//25 41//26 40//38 43//45
f  41//26 49//27 48//30 40//38
f  49//27 47//28 46//31 48//30
f  47//28 45//18 44//21 46//31
f  50//22 55//23 54//40 51//35
f  55//23 53//24 52//41 54//40
f  53//24 42//25 43//45 52//41
f  51//35 70//34 69//46 50//22
f  50//22 69//46 64//19 45//18
f  44//21 63//20 106//47 86//43
f  79//17 85//17 38//17
f  79//17 82//17 85//17
f  82//17 81//17 85//17
f  87//17 37//17 88//17
f  91//17 37//17 87//17
f  80//17 37//17 91//17
f  92//42 52//41 43//45 78//44
f  69//46 74//48 64//19
f  74//48 72//49 64//19
f  72//49 61//50 64//19
f  61//50 60//51 64//19
f  60//51 68//52 64//19
f  68//52 66//53 64//19
f  57//17 38//17 97//17
f  103//54 104//55 65//56 67//57
f  58//58 103//54 67//57 59//59
f  110//60 112//61 71//62 73//63
f  109//33 110//60 73//63 70//34
f  104//55 106//47 63//20 65//56
f  58//58 59//59 62//64 98//65
f  100//17 56//17 57//17 99//17
f  61//50 62//64 59//59 60//51
f  60//51 59//59 67//57 68//52
f  68//52 67//57 65//56 66//53
f  66//53 65//56 63//20 64//19
f  69//46 70//34 73//63 74//48
f  74//48 73//63 71//62 72//49
f  72//49 71//62 62//64 61//50
f  99//17 57//17 105//17
f  99//17 105//17 102//17
f  105//17 101//17 102//17
f  105//17 57//17 97//17
f  105//17 97//17 75//17
f  105//17 75//17 77//17
f  105//17 77//17 76//17
f  105//17 76//17 96//66
f  108//17 56//17 107//17
f  56//17 111//17 107//17
f  56//17 100//17 111//17
f  112//61 98//65 62//64 71//62
f  38//17 85//17 97//17
f  85//17 93//17 97//17
f  85//17 94//17 93//17
f  85//17 95//17 94//17
f  85//17 96//66 95//17
f  85//17 105//17 96//66
usemtl material_3
f  120//67 115//68 114//69 123//70
f  123//70 114//69 124//71
f  114//69 118//72 124//71
f  118//72 113//73 124//71
f  113//73 118//72 117//74 116//75
f  124//71 113//73 116//75 119//76
f  115//68 117//74 118//72 114//69
f  120//67 123//70 122//77 126//78
f  123//70 124//71 122//77
f  124//71 125//79 122//77
f  124//71 121//80 125//79
f  127//81 125//79 121//80 128//82
f  128//82 121//80 124//71 119//76
f  126//78 122//77 125//79 127//81
